<svg xmlns="http://www.w3.org/2000/svg" xmlns:xlink="http://www.w3.org/1999/xlink" viewBox="0 0 800 800"><defs><radialGradient id="a" cx="400" cy="400" r="382" gradientUnits="userSpaceOnUse"><stop offset="0" stop-color="#fff"/><stop offset="1" stop-color="#68829e"/></radialGradient></defs><title>Artboard 1</title><circle cx="400" cy="400" r="382" style="stroke:#505160;stroke-miterlimit:10;stroke-width:15px;fill:url(#a)"/><polygon points="302.69 668.82 300.46 298.88 66.51 324.77 26.04 201.08 399.43 107 773.96 201.07 733.39 325.06 498.49 298.9 498.49 337.57 725.25 349.94 685.4 471.73 498.49 484.79 498.49 522.34 676.06 500.28 631.46 636.59 399.4 693 302.69 668.82" style="fill:#505160"/><polygon points="114.23 470.62 74.54 349.3 284.63 338.64 284.63 483.02 114.23 470.62" style="fill:#505160"/><polygon points="168.23 635.66 123.72 499.61 284.63 520.7 284.63 664.24 168.23 635.66" style="fill:#505160"/><polygon points="759.51 209.05 725.54 312.86 487.23 286.32 487.23 348.23 710 360.38 677.06 461.03 487.23 474.3 487.23 535.08 659.85 513.64 622.71 627.13 399.44 681.41 399.44 118.61 759.51 209.05" style="fill:#598234"/><polygon points="399.44 118.61 40.49 209.05 74.36 312.57 311.64 286.32 313.89 660.02 399.44 681.41 399.44 118.61" style="fill:#aebd38"/><polygon points="89.81 359.8 273.37 350.48 273.37 470.92 122.58 459.94 89.81 359.8" style="fill:#aebd38"/><polygon points="139.97 513.09 273.37 530.58 273.37 649.89 176.98 626.22 139.97 513.09" style="fill:#aebd38"/></svg>